<?xml version="1.0" encoding="UTF-8"?>
<svg width="58px" height="78px" viewBox="0 0 58 78" version="1.1" xmlns="http://www.w3.org/2000/svg" xmlns:xlink="http://www.w3.org/1999/xlink">
    <!-- Generator: Sketch 49.3 (51167) - http://www.bohemiancoding.com/sketch -->
    <title>noun_1721647_cc</title>
    <desc>Created with Sketch.</desc>
    <defs></defs>
    <g id="Page-1" stroke="none" stroke-width="1" fill="none" fill-rule="evenodd">
        <g id="noun_1721647_cc" fill="#000000" fill-rule="nonzero">
            <g id="Group">
                <path d="M13.108,37.138 C17.282,41.601 22.924,44.06 28.998,44.06 C35.07,44.06 40.714,41.601 44.893,37.138 C48.69,33.079 50.782,27.802 50.782,22.281 C50.782,10.271 41.011,0.5 29,0.5 C16.99,0.5 7.219,10.271 7.219,22.281 C7.218,27.804 9.311,33.08 13.108,37.138 Z" id="Shape"></path>
                <path d="M46.166,40.122 C41.52,44.607 35.475,47.06 28.999,47.06 C22.523,47.06 16.478,44.607 11.836,40.122 C4.411,45.584 0.016,54.225 0.016,63.476 L0.016,77.5 L57.985,77.5 L57.985,63.477 C57.982,54.227 53.588,45.586 46.166,40.122 Z" id="Shape"></path>
            </g>
        </g>
    </g>
</svg>